# xmcd
#
# Track frame offsets:
#	150
#	16632
#	33110
#
# Disc length: 659 seconds
#
# Revision: 0
# Processed by: cddbd v1.5.1PL2 Copyright (c) Steve Scherf et al.
# Submitted via: dBpowerAMP V4.0
#
DISCID=10029103
DTITLE=Bobbie Cryner - CD Single
DYEAR=1996
DGENRE=Country
TTITLE0=I Just Can't Stand To Be Unhappy
TTITLE1=I Just Can't Stand To Be Unhappy
TTITLE2=I Just Can't Stand To Be Unhappy
EXTD=
EXTT0=
EXTT1=
EXTT2=
PLAYORDER=
